Coordinates
version=1
nRows=31
nColumns=34
inDegrees=no

Units are S.I. units (second, meters, Newtons, ...)
If the header above contains a line with 'inDegrees', this indicates whether rotational values are in degrees (yes) or radians (no).

endheader
time	pelvis_tilt	pelvis_list	pelvis_rotation	pelvis_tx	pelvis_ty	pelvis_tz	hip_flexion_r	hip_adduction_r	hip_rotation_r	knee_angle_r	ankle_angle_r	subtalar_angle_r	mtp_angle_r	hip_flexion_l	hip_adduction_l	hip_rotation_l	knee_angle_l	ankle_angle_l	subtalar_angle_l	mtp_angle_l	lumbar_extension	lumbar_bending	lumbar_rotation	arm_flex_r	arm_add_r	arm_rot_r	elbow_flex_r	pro_sup_r	arm_flex_l	arm_add_l	arm_rot_l	elbow_flex_l	pro_sup_l
0.39	0.0379382	-0.146718	0.0293868	0.292719	1.05146	-0.315494	-0.0234171	0.185217	-0.150673	0.201083	0.149209	-0.0521827	-0.0331245	0.488745	-0.326347	-0.191823	0.976866	0.0426779	0.0557728	-0.0349844	-0.333695	0.108612	0.0227164	0.0973317	-0.218547	-0.11772	0.740268	2.10513	-0.333555	-0.187422	-0.260485	0.704558	2.11797
0.4	0.0378958	-0.145857	0.0263756	0.302168	1.0509	-0.314276	-0.037491	0.186311	-0.145906	0.194874	0.15726	-0.0485423	-0.0331332	0.489097	-0.324028	-0.210848	0.923391	0.0459956	0.057867	-0.0349861	-0.33431	0.0984019	0.0256653	0.101028	-0.220289	-0.107989	0.746303	2.10416	-0.338626	-0.186253	-0.273933	0.705235	2.10802
0.41	0.0375461	-0.145339	0.0231089	0.311651	1.05015	-0.313063	-0.050997	0.187641	-0.140966	0.189313	0.165478	-0.0451633	-0.0331418	0.487767	-0.322135	-0.232073	0.866423	0.0485063	0.063417	-0.0349878	-0.334489	0.0883011	0.0285003	0.10442	-0.222006	-0.0983267	0.752527	2.1037	-0.342994	-0.185009	-0.287358	0.70605	2.09893
0.42	0.0368764	-0.145125	0.0196311	0.321175	1.04922	-0.311864	-0.063955	0.189124	-0.136098	0.184371	0.173932	-0.0417586	-0.0331504	0.484877	-0.320418	-0.255203	0.806157	0.0504438	0.0736254	-0.0349895	-0.334211	0.0782922	0.031226	0.107432	-0.223668	-0.0889102	0.758932	2.10361	-0.346676	-0.183789	-0.300718	0.707037	2.09154
0.43	0.0359036	-0.145129	0.0160016	0.330744	1.04812	-0.310693	-0.076408	0.190619	-0.131608	0.180024	0.182709	-0.0379774	-0.033159	0.480511	-0.318517	-0.279664	0.742752	0.0520312	0.0894619	-0.0349912	-0.333496	0.0683094	0.03381	0.110019	-0.225235	-0.0798818	0.76547	2.1038	-0.349694	-0.182703	-0.313943	0.708216	2.0865
0.44	0.034675	-0.145217	0.0122835	0.340366	1.04687	-0.309565	-0.0884189	0.191933	-0.127828	0.176263	0.191909	-0.0334409	-0.0331676	0.474705	-0.315998	-0.304569	0.676347	0.0534472	0.111483	-0.034993	-0.332397	0.0582429	0.0361906	0.11217	-0.226668	-0.0713451	0.772057	2.10422	-0.352067	-0.181869	-0.326935	0.709588	2.0842
0.45	0.033265	-0.145226	0.00853022	0.350049	1.04549	-0.308497	-0.100062	0.192851	-0.125068	0.173095	0.201623	-0.0277935	-0.0331763	0.467455	-0.312404	-0.328724	0.607111	0.0548048	0.13967	-0.0349947	-0.331004	0.047955	0.0382916	0.113903	-0.22792	-0.0633679	0.778591	2.1049	-0.353815	-0.18141	-0.339556	0.71114	2.08476
0.46	0.0317773	-0.144991	0.00477225	0.359802	1.044	-0.307502	-0.11141	0.193168	-0.123561	0.17054	0.211901	-0.0207673	-0.0331849	0.458745	-0.30734	-0.3507	0.535332	0.0561503	0.17333	-0.0349964	-0.329415	0.0373061	0.0400395	0.115257	-0.228946	-0.0559868	0.784967	2.10593	-0.354965	-0.181444	-0.351629	0.712837	2.08804
0.47	0.0303198	-0.144393	0.00101283	0.369638	1.04245	-0.306591	-0.122529	0.192734	-0.123408	0.168622	0.222724	-0.0122506	-0.0331935	0.448606	-0.300566	-0.368975	0.461546	0.0574827	0.211085	-0.0349981	-0.32772	0.0261815	0.0413819	0.116278	-0.229706	-0.0492121	0.791095	2.10741	-0.355545	-0.182085	-0.362946	0.714632	2.09362
0.48	0.0289624	-0.14337	-0.00276802	0.379567	1.04083	-0.30577	-0.133473	0.191494	-0.124548	0.167355	0.23398	-0.00232716	-0.0332021	0.437164	-0.292086	-0.382148	0.386679	0.0587942	0.250997	-0.0349998	-0.325999	0.0145276	0.0423022	0.117009	-0.230167	-0.0430266	0.796916	2.10941	-0.355596	-0.183429	-0.373275	0.71647	2.10083
0.49	0.027741	-0.141938	-0.00660927	0.389595	1.03919	-0.305038	-0.144289	0.189506	-0.126754	0.16673	0.245462	0.00872686	-0.0332108	0.424706	-0.282207	-0.389218	0.312165	0.0601205	0.290823	-0.0350015	-0.324302	0.00237104	0.0428231	0.117477	-0.230309	-0.0373771	0.802412	2.11183	-0.355168	-0.185559	-0.38238	0.718294	2.10875
0.5	0.0266598	-0.140194	-0.0105556	0.399728	1.03752	-0.30439	-0.15501	0.18694	-0.129675	0.16671	0.256879	0.0204833	-0.0332194	0.411709	-0.271539	-0.389851	0.239987	0.0615776	0.328374	-0.0350032	-0.322644	-0.0101823	0.0430032	0.117688	-0.230125	-0.0321972	0.807596	2.11447	-0.354315	-0.188535	-0.390067	0.72004	2.11652
0.51	0.0256967	-0.138295	-0.0146403	0.409964	1.03585	-0.303812	-0.165657	0.18404	-0.132897	0.167227	0.267883	0.0324283	-0.0332281	0.398831	-0.260924	-0.384562	0.172583	0.0633607	0.361873	-0.035005	-0.321004	-0.0229701	0.0429233	0.117615	-0.229615	-0.0274269	0.812506	2.11714	-0.353081	-0.192399	-0.396205	0.721627	2.12341
0.52	0.024815	-0.136415	-0.018868	0.420301	1.03419	-0.303284	-0.176233	0.18106	-0.136021	0.168201	0.278109	0.0440508	-0.0332367	0.386826	-0.251271	-0.374718	0.112568	0.0656794	0.390204	-0.0350067	-0.319338	-0.0358193	0.0426679	0.117205	-0.228784	-0.0230301	0.817194	2.11968	-0.351489	-0.197181	-0.400732	0.722955	2.12896
0.53	0.0239791	-0.134673	-0.0232063	0.430734	1.03256	-0.30279	-0.186737	0.178179	-0.138751	0.169555	0.287224	0.0549408	-0.0332454	0.376384	-0.243346	-0.362296	0.0623032	0.068633	0.412942	-0.0350084	-0.3176	-0.0486078	0.0423063	0.116377	-0.227639	-0.0190075	0.821707	2.12196	-0.349522	-0.202896	-0.403649	0.723908	2.13295
0.54	0.0231867	-0.133096	-0.0275928	0.441267	1.03099	-0.302319	-0.197184	0.175415	-0.14096	0.171239	0.294977	0.0648807	-0.033254	0.367916	-0.237552	-0.349448	0.0233836	0.0720583	0.430164	-0.0350101	-0.315776	-0.0613324	0.0418768	0.115027	-0.226186	-0.0154001	0.826084	2.12393	-0.347129	-0.209553	-0.405005	0.724353	2.13534
0.55	0.0225252	-0.131568	-0.0319496	0.451914	1.0295	-0.301872	-0.207639	0.172579	-0.142717	0.173231	0.301227	0.0739018	-0.0332627	0.361374	-0.233817	-0.338007	-0.00376419	0.0754218	0.442169	-0.0350118	-0.313907	-0.074146	0.0413824	0.113042	-0.224426	-0.0122758	0.830348	2.12559	-0.344231	-0.217145	-0.404895	0.724154	2.13625
0.56	0.0221531	-0.129802	-0.0361999	0.462699	1.02814	-0.301462	-0.21824	0.169292	-0.144258	0.175553	0.305949	0.0822499	-0.0332713	0.356205	-0.231614	-0.329199	-0.0199672	0.0778449	0.449365	-0.0350136	-0.312113	-0.0873412	0.0407813	0.11032	-0.22235	-0.0096929	0.834498	2.12701	-0.340761	-0.225644	-0.403461	0.723195	2.13586
0.57	0.0223013	-0.127403	-0.0402783	0.473651	1.02693	-0.301111	-0.229201	0.165028	-0.14595	0.178275	0.309216	0.0903537	-0.03328	0.351507	-0.230101	-0.323594	-0.0269918	0.07827	0.452296	-0.0350153	-0.310604	-0.101325	0.0399802	0.106787	-0.219936	-0.00768063	0.838501	2.12833	-0.336679	-0.235003	-0.400896	0.721389	2.13435
0.58	0.023241	-0.123929	-0.0441375	0.4848	1.02594	-0.300852	-0.240749	0.159218	-0.148217	0.181514	0.311157	0.0986902	-0.0332886	0.346286	-0.22832	-0.321164	-0.0271086	0.0756748	0.451631	-0.035017	-0.309629	-0.11654	0.0388621	0.102402	-0.217156	-0.00624143	0.842307	2.12972	-0.33196	-0.245158	-0.397414	0.718676	2.13194
0.59	0.0251831	-0.11901	-0.0477471	0.496162	1.02521	-0.300708	-0.253035	0.151378	-0.151406	0.185432	0.311861	0.107576	-0.0332973	0.339682	-0.225386	-0.321385	-0.0226943	0.0692574	0.448075	-0.0350187	-0.309407	-0.133372	0.0373236	0.0971446	-0.21399	-0.00534866	0.845847	2.13132	-0.326576	-0.25603	-0.393238	0.715008	2.12881
0.6	0.028211	-0.112408	-0.0510982	0.507742	1.02476	-0.300698	-0.266044	0.141204	-0.155709	0.190227	0.311321	0.117035	-0.033306	0.331124	-0.220628	-0.323419	-0.0159523	0.0585764	0.442305	-0.0350204	-0.310041	-0.152065	0.0352945	0.0910234	-0.21043	-0.00494183	0.849038	2.13318	-0.320498	-0.267518	-0.388584	0.710348	2.12518
0.61	0.0322396	-0.104054	-0.0542047	0.519538	1.02459	-0.30083	-0.279547	0.128622	-0.161148	0.196128	0.309405	0.126769	-0.0333147	0.320345	-0.213643	-0.326293	-0.00874964	0.0436211	0.43491	-0.0350221	-0.311466	-0.172675	0.0327416	0.08407	-0.206488	-0.00491951	0.851782	2.13524	-0.313701	-0.279505	-0.383664	0.704673	2.12123
0.62	0.0370391	-0.0940282	-0.057093	0.531541	1.0247	-0.301106	-0.293124	0.113747	-0.167626	0.203398	0.305877	0.136265	-0.0333233	0.307365	-0.204281	-0.329057	-0.00253271	0.0248275	0.426282	-0.0350238	-0.313474	-0.195091	0.0296551	0.0763459	-0.202187	-0.00513677	0.853966	2.13737	-0.306176	-0.291856	-0.378668	0.697995	2.11712
0.63	0.0422792	-0.0825227	-0.0597882	0.543735	1.02508	-0.301521	-0.306204	0.0968306	-0.174986	0.212338	0.300418	0.144896	-0.033332	0.292455	-0.19262	-0.330923	0.00174576	0.00306271	0.416614	-0.0350255	-0.315753	-0.21907	0.0260338	0.0679438	-0.19756	-0.00541046	0.855464	2.1394	-0.297928	-0.304427	-0.373779	0.690377	2.11294
0.64	0.0475709	-0.06981	-0.0623051	0.556094	1.0257	-0.302066	-0.318117	0.0782121	-0.183013	0.223289	0.292642	0.151977	-0.0333407	0.27612	-0.178933	-0.331408	0.00369681	-0.0204197	0.406017	-0.0350273	-0.317938	-0.244276	0.0218791	0.0589864	-0.192654	-0.00552288	0.856148	2.1412	-0.288987	-0.317067	-0.369181	0.681952	2.10882
0.65	0.0525107	-0.0562115	-0.0646469	0.568582	1.02654	-0.302733	-0.328146	0.0582675	-0.191443	0.236631	0.282114	0.156823	-0.0333494	0.259033	-0.163636	-0.330397	0.00347364	-0.0440911	0.394646	-0.035029	-0.319662	-0.270316	0.017197	0.0496215	-0.187531	-0.00523239	0.855908	2.14263	-0.279399	-0.329624	-0.36507	0.67293	2.10495
0.66	0.0567247	-0.0420639	-0.0668138	0.581154	1.02757	-0.303512	-0.33558	0.0373643	-0.199983	0.252777	0.268392	0.15883	-0.0333581	0.241935	-0.147229	-0.32811	0.00164094	-0.0663258	0.382769	-0.0350307	-0.320601	-0.296774	0.012007	0.040013	-0.182271	-0.00428898	0.854665	2.14361	-0.269225	-0.341939	-0.361652	0.663605	2.10157
0.67	0.0599071	-0.0276906	-0.0688158	0.593761	1.02876	-0.304395	-0.339765	0.0158253	-0.208333	0.272159	0.251069	0.157554	-0.0333668	0.225515	-0.130216	-0.324948	-0.00104359	-0.0856305	0.370708	-0.0350324	-0.320508	-0.323246	0.00635455	0.0303312	-0.17698	-0.0024524	0.852401	2.14412	-0.25853	-0.353859	-0.359126	0.654346	2.09899
0.68	0.0618337	-0.0133979	-0.0706855	0.606348	1.03009	-0.305375	-0.340129	-0.00606949	-0.216178	0.295199	0.229807	0.152726	-0.0333755	0.210327	-0.113077	-0.321375	-0.00383191	-0.100844	0.358808	-0.0350341	-0.319219	-0.349342	0.000326047	0.0207427	-0.171787	0.000491197	0.849172	2.14421	-0.247382	-0.365232	-0.35766	0.645577	2.09751
0.69	0.062358	0.000513117	-0.0724867	0.618859	1.03154	-0.306442	-0.336206	-0.0280603	-0.223174	0.322267	0.204362	0.144229	-0.0333842	0.196754	-0.0962474	-0.317833	-0.00613641	-0.111273	0.34741	-0.0350359	-0.316646	-0.374685	-0.00594049	0.0114011	-0.166854	0.00471474	0.845119	2.14396	-0.235839	-0.375914	-0.35736	0.637746	2.09737
